<svg width="371" height="81" viewBox="0 0 371 81" fill="none" xmlns="http://www.w3.org/2000/svg">
<g clip-path="url(#clip0_1_2)">
<path d="M29.248 27.304C27.5413 27.304 25.1733 27.0267 22.144 26.472C17.8773 29.7147 13.9307 31.336 10.304 31.336C10.176 31.336 10.048 31.336 9.92 31.336C7.31733 31.2933 5.26933 30.6107 3.776 29.288C2.32533 27.9227 1.6 26.1307 1.6 23.912C1.6 21.6507 2.32533 19.816 3.776 18.408C5.26933 17 7.46667 16.296 10.368 16.296C12.288 16.296 15.36 16.936 19.584 18.216C24.0213 19.5387 27.328 20.2 29.504 20.2C33.088 20.2 35.456 18.92 36.608 16.36L39.104 18.088C38.1653 24.232 34.88 27.304 29.248 27.304ZM7.936 25.832C7.936 26.8987 8.85333 27.432 10.688 27.432C12.5227 27.432 14.7627 26.7493 17.408 25.384C13.6533 24.4453 11.072 23.976 9.664 23.976C9.19467 23.976 8.78933 24.168 8.448 24.552C8.10667 24.8933 7.936 25.32 7.936 25.832ZM25.408 30.568L24.384 37.416H33.92C34.304 38.312 34.496 39.1867 34.496 40.04C34.496 40.8933 34.0907 41.6187 33.28 42.216C32.4693 42.7707 31.4453 43.048 30.208 43.048H23.488L23.424 43.624C28.8 46.184 31.488 49.9813 31.488 55.016C31.488 58.8133 30.4853 61.5013 28.48 63.08C26.4747 64.616 24.1067 65.384 21.376 65.384C18.6453 65.384 16.5333 64.7013 15.04 63.336C13.5467 61.928 12.8 60.072 12.8 57.768C12.8 57.384 12.8427 56.8933 12.928 56.296L14.656 43.048H8.64C8.896 40.616 9.10933 38.7387 9.28 37.416H15.424L16.128 31.784C18.3467 30.7173 20.2027 30.184 21.696 30.184C23.1893 30.184 24.4267 30.312 25.408 30.568ZM23.36 59.56C24.384 59.56 25.28 59.1973 26.048 58.472C26.816 57.704 27.2 56.5093 27.2 54.888C27.2 51.688 25.7493 49.2347 22.848 47.528C22.1653 52.264 21.8027 55.2293 21.76 56.424C21.76 57.576 21.9093 58.3867 22.208 58.856C22.5493 59.3253 22.9333 59.56 23.36 59.56ZM56.5545 42.6C56.5545 40.7227 55.6798 39.784 53.9305 39.784C52.2238 39.784 50.8585 40.8933 49.8345 43.112C54.4425 46.7387 56.7465 50.8133 56.7465 55.336C56.7465 58.6213 55.8292 61.1173 53.9945 62.824C52.1598 64.5307 49.8558 65.384 47.0825 65.384C44.3092 65.384 42.2825 64.5307 41.0025 62.824C39.7225 61.0747 39.0825 58.8773 39.0825 56.232C39.0825 55.4213 39.1038 54.824 39.1465 54.44L41.3865 34.92C42.9225 34.4507 44.4798 34.216 46.0585 34.216C48.6612 34.216 49.9625 35.176 49.9625 37.096V37.224C51.6692 35.2187 53.8452 34.216 56.4905 34.216C58.4105 34.216 59.9038 34.664 60.9705 35.56C62.0372 36.4133 62.5705 37.5653 62.5705 39.016C62.5705 40.4667 62.0158 41.6613 60.9065 42.6C59.8398 43.496 58.4318 43.944 56.6825 43.944C56.5972 43.944 56.5118 43.944 56.4265 43.944C56.5118 43.4747 56.5545 43.0267 56.5545 42.6ZM52.5865 55.016C52.5865 52.5413 51.3065 50.0667 48.7465 47.592C47.9785 53.736 47.5945 56.8293 47.5945 56.872C47.5945 58.664 48.3198 59.56 49.7705 59.56C51.6478 59.56 52.5865 58.0453 52.5865 55.016ZM92.5295 65.32C88.6042 65.32 86.0015 63.9547 84.7215 61.224C82.5028 63.9973 79.6442 65.384 76.1455 65.384C72.6895 65.384 69.7668 64.2107 67.3775 61.864C65.0308 59.5173 63.8575 56.424 63.8575 52.584C63.8575 46.9947 65.5002 42.536 68.7855 39.208C72.0708 35.88 76.2308 34.216 81.2655 34.216C81.3935 34.216 81.5215 34.216 81.6495 34.216C83.7828 34.216 85.7455 34.5787 87.5375 35.304C88.6895 34.5787 90.0762 34.216 91.6975 34.216C93.3615 34.216 94.5562 34.4293 95.2815 34.856C94.8975 38.0133 94.4922 41.128 94.0655 44.2C93.6388 47.2293 93.3402 49.384 93.1695 50.664C92.7855 53.5653 92.5935 55.656 92.5935 56.936C92.5935 58.6427 93.2762 59.496 94.6415 59.496C95.7082 59.496 96.8388 58.792 98.0335 57.384C99.2282 55.9333 100.274 53.672 101.17 50.6C102.407 51.7093 103.26 52.9467 103.73 54.312C102.492 58.3653 100.828 61.224 98.7375 62.888C96.6468 64.5093 94.5775 65.32 92.5295 65.32ZM82.2255 39.208C79.4948 39.208 77.3188 40.2533 75.6975 42.344C74.1188 44.392 73.1802 47.464 72.8815 51.56C72.8388 51.944 72.8175 52.3067 72.8175 52.648C72.8175 54.7387 73.3082 56.4027 74.2895 57.64C75.3135 58.8773 76.6148 59.496 78.1935 59.496C80.8815 59.496 82.9082 57.5973 84.2735 53.8L85.8095 39.976C84.5722 39.464 83.3775 39.208 82.2255 39.208ZM125.864 45.416C129.235 47.8907 130.92 50.8133 130.92 54.184C130.92 57.5547 129.597 60.264 126.952 62.312C124.307 64.36 120.979 65.384 116.968 65.384C114.365 65.384 112.189 64.744 110.44 63.464C108.733 62.1413 107.88 60.52 107.88 58.6C107.88 56.68 108.52 55.1653 109.8 54.056C111.08 52.904 112.68 52.2 114.6 51.944C113.704 53.224 113.256 54.4613 113.256 55.656C113.256 56.808 113.661 57.7467 114.472 58.472C115.283 59.1973 116.307 59.56 117.544 59.56C118.781 59.56 119.805 59.112 120.616 58.216C121.427 57.2773 121.832 56.2107 121.832 55.016C121.832 53.0533 120.915 51.304 119.08 49.768C117.971 48.872 116.776 48.04 115.496 47.272C114.216 46.4613 113.533 46.0347 113.448 45.992C113.277 45.864 113.107 45.7573 112.936 45.672C112.168 46.568 111.059 47.8053 109.608 49.384C108.157 50.92 107.005 52.1573 106.152 53.096C103.763 55.6987 102.419 57.8747 102.12 59.624C102.035 59.9653 101.992 60.6267 101.992 61.608C101.992 62.5467 102.269 63.528 102.824 64.552C103.421 65.576 104.125 66.344 104.936 66.856C105.747 67.368 106.536 67.7733 107.304 68.072C108.115 68.4133 108.797 68.648 109.352 68.776C109.949 68.904 110.248 68.9893 110.248 69.032C110.248 69.3307 109.779 69.672 108.84 70.056C107.091 70.696 105.256 71.016 103.336 71.016C101.459 71.016 99.624 70.3333 97.832 68.968C95.4 67.0907 94.184 64.5947 94.184 61.48C94.184 59.56 94.6747 57.6613 95.656 55.784C97.4053 52.456 101.501 47.8907 107.944 42.088C106.365 40.5093 105.576 38.824 105.576 37.032C105.576 35.24 106.237 33.7253 107.56 32.488C108.925 31.2507 110.525 30.632 112.36 30.632C114.024 30.632 115.475 31.2933 116.712 32.616C117.523 33.512 117.928 34.6427 117.928 36.008C117.928 37.3733 117.48 38.9093 116.584 40.616C121.149 42.664 124.243 44.264 125.864 45.416ZM111.976 38.184C113 37.1173 113.512 36.3493 113.512 35.88C113.512 34.8133 113.043 34.2373 112.104 34.152C111.037 34.152 110.504 34.7493 110.504 35.944C110.504 36.6693 110.995 37.416 111.976 38.184ZM143.954 50.664C146.599 50.1093 148.562 49.0427 149.842 47.464C151.164 45.8853 151.826 44.3707 151.826 42.92C151.826 41.4267 151.42 40.424 150.61 39.912C149.842 39.3573 148.988 39.08 148.05 39.08C146.044 39.08 144.274 40.2107 142.738 42.472C141.244 44.6907 140.498 47.3573 140.498 50.472C140.498 53.544 141.223 55.848 142.674 57.384C144.167 58.8773 146.002 59.624 148.178 59.624C151.378 59.624 154.45 58.5147 157.394 56.296C160.338 54.0773 162.727 51.176 164.562 47.592C165.5 48.488 166.354 49.5973 167.122 50.92C165.714 54.12 163.218 57.256 159.634 60.328C157.842 61.8213 155.708 63.0373 153.234 63.976C150.802 64.9147 148.284 65.384 145.682 65.384C141.415 65.384 138.044 64.0827 135.57 61.48C132.924 58.664 131.602 55.0587 131.602 50.664C131.602 46.2693 133.244 42.4293 136.53 39.144C139.858 35.8587 143.826 34.216 148.434 34.216C151.719 34.216 154.386 34.9413 156.434 36.392C158.482 37.8 159.527 39.72 159.57 42.152C159.57 45.4373 158.247 48.104 155.602 50.152C152.999 52.2 149.415 53.6293 144.85 54.44L143.954 50.664ZM200.373 18.856C200.671 18.1307 201.333 17.5333 202.357 17.064C203.423 16.552 204.682 16.296 206.132 16.296C207.626 16.296 208.735 16.5093 209.461 16.936C209.034 20.264 208.351 25.4907 207.413 32.616C205.45 47.5067 204.469 55.72 204.469 57.256C204.469 58.7493 205.109 59.496 206.389 59.496C207.498 59.496 208.65 58.8133 209.845 57.448C211.039 56.04 212.127 53.7573 213.109 50.6C214.303 51.752 215.135 53.0107 215.605 54.376C214.069 59.4533 211.658 62.7387 208.373 64.232C206.879 64.9573 205.471 65.32 204.149 65.32C200.351 65.32 197.813 63.9547 196.533 61.224C194.314 63.9973 191.477 65.384 188.021 65.384C184.565 65.384 181.642 64.2107 179.253 61.864C176.906 59.5173 175.733 56.424 175.733 52.584C175.733 46.9947 177.375 42.536 180.661 39.208C183.946 35.88 188.106 34.216 193.141 34.216C193.269 34.216 193.397 34.216 193.525 34.216C195.274 34.216 196.917 34.472 198.453 34.984L200.373 18.856ZM194.101 39.208C191.37 39.208 189.194 40.2533 187.573 42.344C185.994 44.392 185.055 47.464 184.757 51.56C184.714 51.944 184.693 52.3067 184.693 52.648C184.693 54.7387 185.183 56.4027 186.165 57.64C187.189 58.8773 188.49 59.496 190.069 59.496C192.757 59.496 194.783 57.5973 196.149 53.8L197.813 40.04C196.405 39.4853 195.167 39.208 194.101 39.208ZM227.755 34.216C231.68 34.216 234.944 35.4747 237.547 37.992C240.192 40.5093 241.515 43.5813 241.515 47.208C241.515 52.712 239.894 57.128 236.651 60.456C233.451 63.7413 229.568 65.384 225.003 65.384C220.438 65.384 216.811 64.0827 214.123 61.48C211.478 58.8773 210.155 55.656 210.155 51.816C210.155 46.44 211.798 42.1733 215.083 39.016C218.411 35.816 222.635 34.216 227.755 34.216ZM226.475 39.4C224.47 39.4 222.784 40.552 221.419 42.856C220.054 45.16 219.307 48.0613 219.179 51.56C219.179 54.0347 219.67 56.0827 220.651 57.704C221.675 59.3253 223.211 60.136 225.259 60.136C227.307 60.136 229.014 59.0053 230.379 56.744C231.787 54.4827 232.491 51.9013 232.491 49C232.491 46.0987 232 43.7947 231.019 42.088C230.038 40.296 228.523 39.4 226.475 39.4ZM282.748 18.856C283.046 18.1307 283.708 17.5333 284.732 17.064C285.798 16.552 287.057 16.296 288.507 16.296C290.001 16.296 291.11 16.5093 291.836 16.936C291.409 20.264 290.726 25.4907 289.788 32.616C287.825 47.5067 286.844 55.72 286.844 57.256C286.844 58.7493 287.484 59.496 288.764 59.496C289.873 59.496 291.025 58.8133 292.22 57.448C293.414 56.04 294.502 53.7573 295.484 50.6C296.678 51.752 297.51 53.0107 297.98 54.376C296.444 59.4533 294.033 62.7387 290.748 64.232C289.254 64.9573 287.846 65.32 286.524 65.32C282.726 65.32 280.188 63.9547 278.908 61.224C276.689 63.9973 273.852 65.384 270.396 65.384C266.94 65.384 264.017 64.2107 261.628 61.864C259.281 59.5173 258.108 56.424 258.108 52.584C258.108 46.9947 259.75 42.536 263.036 39.208C266.321 35.88 270.481 34.216 275.516 34.216C275.644 34.216 275.772 34.216 275.9 34.216C277.649 34.216 279.292 34.472 280.828 34.984L282.748 18.856ZM276.476 39.208C273.745 39.208 271.569 40.2533 269.948 42.344C268.369 44.392 267.43 47.464 267.132 51.56C267.089 51.944 267.068 52.3067 267.068 52.648C267.068 54.7387 267.558 56.4027 268.54 57.64C269.564 58.8773 270.865 59.496 272.444 59.496C275.132 59.496 277.158 57.5973 278.524 53.8L280.188 40.04C278.78 39.4853 277.542 39.208 276.476 39.208ZM298.226 17.896C299.207 16.872 300.402 16.36 301.81 16.36C303.218 16.36 304.413 16.872 305.394 17.896C306.418 18.8773 306.93 20.072 306.93 21.48C306.93 22.888 306.418 24.0827 305.394 25.064C304.413 26.0453 303.218 26.536 301.81 26.536C300.402 26.536 299.207 26.0453 298.226 25.064C297.245 24.0827 296.754 22.888 296.754 21.48C296.754 20.072 297.245 18.8773 298.226 17.896ZM295.602 36.648C296.029 35.88 296.839 35.304 298.034 34.92C299.229 34.4933 300.402 34.28 301.554 34.28C302.749 34.28 303.794 34.4293 304.69 34.728C303.026 47.5707 302.194 54.056 302.194 54.184C301.981 55.0373 301.874 55.7627 301.874 56.36C301.874 56.9147 301.917 57.4053 302.002 57.832C302.173 58.9413 302.941 59.496 304.306 59.496C305.714 59.496 306.994 58.6 308.146 56.808C309.341 54.9733 310.237 52.904 310.834 50.6C311.133 50.7707 311.602 51.2827 312.242 52.136C312.882 52.9893 313.266 53.6293 313.394 54.056C312.541 57.4693 311.09 60.2213 309.042 62.312C306.994 64.4027 304.541 65.448 301.682 65.448C298.823 65.448 296.69 64.744 295.282 63.336C293.917 61.928 293.234 60.1147 293.234 57.896C293.234 57.4267 293.255 56.936 293.298 56.424L295.602 36.648ZM336.655 65.32C332.729 65.32 330.127 63.9547 328.847 61.224C326.628 63.9973 323.769 65.384 320.271 65.384C316.815 65.384 313.892 64.2107 311.503 61.864C309.156 59.5173 307.983 56.424 307.983 52.584C307.983 46.9947 309.625 42.536 312.911 39.208C316.196 35.88 320.356 34.216 325.391 34.216C325.519 34.216 325.647 34.216 325.775 34.216C327.908 34.216 329.871 34.5787 331.663 35.304C332.815 34.5787 334.201 34.216 335.823 34.216C337.487 34.216 338.681 34.4293 339.407 34.856C339.023 38.0133 338.617 41.128 338.191 44.2C337.764 47.2293 337.465 49.384 337.295 50.664C336.911 53.5653 336.719 55.656 336.719 56.936C336.719 58.6427 337.401 59.496 338.767 59.496C339.833 59.496 340.964 58.792 342.159 57.384C343.353 55.9333 344.399 53.672 345.295 50.6C346.532 51.7093 347.385 52.9467 347.855 54.312C346.617 58.3653 344.953 61.224 342.863 62.888C340.772 64.5093 338.703 65.32 336.655 65.32ZM326.351 39.208C323.62 39.208 321.444 40.2533 319.823 42.344C318.244 44.392 317.305 47.464 317.007 51.56C316.964 51.944 316.943 52.3067 316.943 52.648C316.943 54.7387 317.433 56.4027 318.415 57.64C319.439 58.8773 320.74 59.496 322.319 59.496C325.007 59.496 327.033 57.5973 328.399 53.8L329.935 39.976C328.697 39.464 327.503 39.208 326.351 39.208Z" fill="black"/>
</g>
<defs>
<clipPath id="clip0_1_2">
<rect width="371" height="81" fill="white"/>
</clipPath>
</defs>
</svg>
